<svg width="20" height="20" viewBox="0 0 20 20" fill="none" xmlns="http://www.w3.org/2000/svg">
<path d="M11.5695 13.8369C10.7327 14.3379 9.77527 14.6018 8.79991 14.6001C8.09062 14.601 7.38814 14.4618 6.73285 14.1904C6.07756 13.9189 5.48237 13.5207 4.98151 13.0185C4.47929 12.5176 4.08102 11.9224 3.8096 11.2671C3.53817 10.6118 3.39894 9.90934 3.39991 9.20005C3.39991 7.70885 4.00391 6.35925 4.98151 5.38165C5.48237 4.87944 6.07756 4.48117 6.73285 4.20974C7.38814 3.93832 8.09062 3.79909 8.79991 3.80005C10.2911 3.80005 11.6407 4.40405 12.6183 5.38165C13.1205 5.88252 13.5188 6.4777 13.7902 7.133C14.0616 7.78829 14.2009 8.49077 14.1999 9.20005C14.2013 10.158 13.9469 11.0989 13.4631 11.9257C13.0495 12.6313 13.1159 13.5161 13.6943 14.0945L16.7767 17.1769" stroke="#797979" stroke-width="1.2"/>
</svg>
